<svg width="158" height="92" viewBox="0 0 158 92" fill="none" xmlns="http://www.w3.org/2000/svg">
<rect x="0.707092" y="13.1959" width="33" height="10" rx="5" transform="rotate(-45 0.707092 13.1959)" fill="url(#paint0_linear_1_137)" fill-opacity="0.5"/>
<rect x="17.6777" y="30.1665" width="33" height="10" rx="5" transform="rotate(-45 17.6777 30.1665)" fill="url(#paint1_linear_1_137)" fill-opacity="0.5"/>
<rect x="24.7487" y="37.2376" width="34" height="10" rx="5" transform="rotate(-135 24.7487 37.2376)" fill="url(#paint2_linear_1_137)" fill-opacity="0.5"/>
<rect x="41.0122" y="20.9741" width="34" height="10" rx="5" transform="rotate(-135 41.0122 20.9741)" fill="url(#paint3_linear_1_137)" fill-opacity="0.5"/>
<rect x="55.1544" y="67.6432" width="33" height="10" rx="5" transform="rotate(-45 55.1544 67.6432)" fill="url(#paint4_linear_1_137)" fill-opacity="0.5"/>
<rect x="72.1249" y="84.6137" width="33" height="10" rx="5" transform="rotate(-45 72.1249 84.6137)" fill="url(#paint5_linear_1_137)" fill-opacity="0.5"/>
<rect x="79.196" y="91.6848" width="34" height="10" rx="5" transform="rotate(-135 79.196 91.6848)" fill="url(#paint6_linear_1_137)" fill-opacity="0.5"/>
<rect x="31.1127" y="42.1873" width="22" height="9" rx="4.5" transform="rotate(-45 31.1127 42.1873)" fill="url(#paint7_linear_1_137)" fill-opacity="0.5"/>
<rect x="58.6899" y="14.6102" width="22" height="9" rx="4.5" transform="rotate(-45 58.6899 14.6102)" fill="url(#paint8_linear_1_137)" fill-opacity="0.5"/>
<rect x="86.267" y="12.4888" width="50" height="9" rx="4.5" transform="rotate(-45 86.267 12.4888)" fill="url(#paint9_linear_1_137)" fill-opacity="0.5"/>
<rect x="53.7401" y="45.0157" width="34" height="9" rx="4.5" transform="rotate(-45 53.7401 45.0157)" fill="url(#paint10_linear_1_137)" fill-opacity="0.5"/>
<rect x="49.4975" y="61.9863" width="27" height="9" rx="4.5" transform="rotate(-135 49.4975 61.9863)" fill="url(#paint11_linear_1_137)" fill-opacity="0.5"/>
<rect x="51.6188" y="10.3675" width="34" height="9" rx="4.5" transform="rotate(-135 51.6188 10.3675)" fill="url(#paint12_linear_1_137)" fill-opacity="0.5"/>
<rect x="72.1249" y="9.6604" width="34" height="9" rx="4.5" transform="rotate(-135 72.1249 9.6604)" fill="url(#paint13_linear_1_137)" fill-opacity="0.5"/>
<rect x="106.773" y="62.6934" width="50" height="9" rx="4.5" transform="rotate(-135 106.773 62.6934)" fill="url(#paint14_linear_1_137)" fill-opacity="0.5"/>
<rect x="121.622" y="49.2584" width="17" height="9" rx="4.5" transform="rotate(-135 121.622 49.2584)" fill="url(#paint15_linear_1_137)" fill-opacity="0.5"/>
<rect x="97.5807" y="25.2168" width="17" height="9" rx="4.5" transform="rotate(-135 97.5807 25.2168)" fill="url(#paint16_linear_1_137)" fill-opacity="0.5"/>
<rect x="95.4594" y="75.4213" width="34" height="10" rx="5" transform="rotate(-135 95.4594 75.4213)" fill="url(#paint17_linear_1_137)" fill-opacity="0.5"/>
<circle cx="55.1543" cy="24.5096" r="4.5" transform="rotate(-45 55.1543 24.5096)" fill="url(#paint18_linear_1_137)" fill-opacity="0.5"/>
<circle cx="106.066" cy="27.3381" r="4.5" transform="rotate(-45 106.066 27.3381)" fill="url(#paint19_linear_1_137)" fill-opacity="0.5"/>
<rect x="110.309" y="12.4888" width="33" height="10" rx="5" transform="rotate(-45 110.309 12.4888)" fill="url(#paint20_linear_1_137)" fill-opacity="0.5"/>
<rect x="127.279" y="29.4594" width="33" height="10" rx="5" transform="rotate(-45 127.279 29.4594)" fill="url(#paint21_linear_1_137)" fill-opacity="0.5"/>
<rect x="134.35" y="36.5305" width="34" height="10" rx="5" transform="rotate(-135 134.35 36.5305)" fill="url(#paint22_linear_1_137)" fill-opacity="0.5"/>
<rect x="150.614" y="20.267" width="34" height="10" rx="5" transform="rotate(-135 150.614 20.267)" fill="url(#paint23_linear_1_137)" fill-opacity="0.5"/>
<path d="M76.3675 66.2289L81.3866 67.5738L77.7124 71.248L76.3675 66.2289Z" fill="url(#paint24_linear_1_137)" fill-opacity="0.5"/>
<path d="M21.9203 11.7817L26.9394 13.1266L23.2652 16.8008L21.9203 11.7817Z" fill="url(#paint25_linear_1_137)" fill-opacity="0.5"/>
<path d="M131.522 11.0746L136.541 12.4195L132.867 16.0937L131.522 11.0746Z" fill="url(#paint26_linear_1_137)" fill-opacity="0.5"/>
<defs>
<linearGradient id="paint0_linear_1_137" x1="17.2071" y1="13.1959" x2="17.2071" y2="23.1959" gradientUnits="userSpaceOnUse">
<stop offset="0.520833" stop-color="#FC9842"/>
<stop offset="1" stop-color="#FFE1C7"/>
</linearGradient>
<linearGradient id="paint1_linear_1_137" x1="34.1777" y1="30.1665" x2="34.1777" y2="40.1665" gradientUnits="userSpaceOnUse">
<stop offset="0.520833" stop-color="#FC9842"/>
<stop offset="1" stop-color="#FFE1C7"/>
</linearGradient>
<linearGradient id="paint2_linear_1_137" x1="41.7487" y1="37.2376" x2="41.7487" y2="47.2376" gradientUnits="userSpaceOnUse">
<stop offset="0.520833" stop-color="#FC9842"/>
<stop offset="1" stop-color="#FFE1C7"/>
</linearGradient>
<linearGradient id="paint3_linear_1_137" x1="58.0122" y1="20.9741" x2="58.0122" y2="30.9741" gradientUnits="userSpaceOnUse">
<stop offset="0.520833" stop-color="#FC9842"/>
<stop offset="1" stop-color="#FFE1C7"/>
</linearGradient>
<linearGradient id="paint4_linear_1_137" x1="71.6544" y1="67.6432" x2="71.6544" y2="77.6432" gradientUnits="userSpaceOnUse">
<stop offset="0.520833" stop-color="#FC9842"/>
<stop offset="1" stop-color="#FFE1C7"/>
</linearGradient>
<linearGradient id="paint5_linear_1_137" x1="88.6249" y1="84.6137" x2="88.6249" y2="94.6137" gradientUnits="userSpaceOnUse">
<stop offset="0.520833" stop-color="#FC9842"/>
<stop offset="1" stop-color="#FFE1C7"/>
</linearGradient>
<linearGradient id="paint6_linear_1_137" x1="96.196" y1="91.6848" x2="96.196" y2="101.685" gradientUnits="userSpaceOnUse">
<stop offset="0.520833" stop-color="#FC9842"/>
<stop offset="1" stop-color="#FFE1C7"/>
</linearGradient>
<linearGradient id="paint7_linear_1_137" x1="42.1127" y1="42.1873" x2="42.1127" y2="51.1873" gradientUnits="userSpaceOnUse">
<stop offset="0.520833" stop-color="#FC9842"/>
<stop offset="1" stop-color="#FFE1C7"/>
</linearGradient>
<linearGradient id="paint8_linear_1_137" x1="69.6899" y1="14.6102" x2="69.6899" y2="23.6102" gradientUnits="userSpaceOnUse">
<stop offset="0.520833" stop-color="#FC9842"/>
<stop offset="1" stop-color="#FFE1C7"/>
</linearGradient>
<linearGradient id="paint9_linear_1_137" x1="111.267" y1="12.4888" x2="111.267" y2="21.4888" gradientUnits="userSpaceOnUse">
<stop offset="0.520833" stop-color="#FC9842"/>
<stop offset="1" stop-color="#FFE1C7"/>
</linearGradient>
<linearGradient id="paint10_linear_1_137" x1="70.7401" y1="45.0157" x2="70.7401" y2="54.0157" gradientUnits="userSpaceOnUse">
<stop offset="0.520833" stop-color="#FC9842"/>
<stop offset="1" stop-color="#FFE1C7"/>
</linearGradient>
<linearGradient id="paint11_linear_1_137" x1="62.9975" y1="61.9863" x2="62.9975" y2="70.9863" gradientUnits="userSpaceOnUse">
<stop offset="0.520833" stop-color="#FC9842"/>
<stop offset="1" stop-color="#FFE1C7"/>
</linearGradient>
<linearGradient id="paint12_linear_1_137" x1="68.6188" y1="10.3675" x2="68.6188" y2="19.3675" gradientUnits="userSpaceOnUse">
<stop offset="0.520833" stop-color="#FC9842"/>
<stop offset="1" stop-color="#FFE1C7"/>
</linearGradient>
<linearGradient id="paint13_linear_1_137" x1="89.1249" y1="9.6604" x2="89.1249" y2="18.6604" gradientUnits="userSpaceOnUse">
<stop offset="0.520833" stop-color="#FC9842"/>
<stop offset="1" stop-color="#FFE1C7"/>
</linearGradient>
<linearGradient id="paint14_linear_1_137" x1="131.773" y1="62.6934" x2="131.773" y2="71.6934" gradientUnits="userSpaceOnUse">
<stop offset="0.520833" stop-color="#FC9842"/>
<stop offset="1" stop-color="#FFE1C7"/>
</linearGradient>
<linearGradient id="paint15_linear_1_137" x1="130.122" y1="49.2584" x2="130.122" y2="58.2584" gradientUnits="userSpaceOnUse">
<stop offset="0.520833" stop-color="#FC9842"/>
<stop offset="1" stop-color="#FFE1C7"/>
</linearGradient>
<linearGradient id="paint16_linear_1_137" x1="106.081" y1="25.2168" x2="106.081" y2="34.2168" gradientUnits="userSpaceOnUse">
<stop offset="0.520833" stop-color="#FC9842"/>
<stop offset="1" stop-color="#FFE1C7"/>
</linearGradient>
<linearGradient id="paint17_linear_1_137" x1="112.459" y1="75.4213" x2="112.459" y2="85.4213" gradientUnits="userSpaceOnUse">
<stop offset="0.520833" stop-color="#FC9842"/>
<stop offset="1" stop-color="#FFE1C7"/>
</linearGradient>
<linearGradient id="paint18_linear_1_137" x1="55.1543" y1="20.0096" x2="55.1543" y2="29.0096" gradientUnits="userSpaceOnUse">
<stop offset="0.520833" stop-color="#FC9842"/>
<stop offset="1" stop-color="#FFE1C7"/>
</linearGradient>
<linearGradient id="paint19_linear_1_137" x1="106.066" y1="22.8381" x2="106.066" y2="31.8381" gradientUnits="userSpaceOnUse">
<stop offset="0.520833" stop-color="#FC9842"/>
<stop offset="1" stop-color="#FFE1C7"/>
</linearGradient>
<linearGradient id="paint20_linear_1_137" x1="126.809" y1="12.4888" x2="126.809" y2="22.4888" gradientUnits="userSpaceOnUse">
<stop offset="0.520833" stop-color="#FC9842"/>
<stop offset="1" stop-color="#FFE1C7"/>
</linearGradient>
<linearGradient id="paint21_linear_1_137" x1="143.779" y1="29.4594" x2="143.779" y2="39.4594" gradientUnits="userSpaceOnUse">
<stop offset="0.520833" stop-color="#FC9842"/>
<stop offset="1" stop-color="#FFE1C7"/>
</linearGradient>
<linearGradient id="paint22_linear_1_137" x1="151.35" y1="36.5305" x2="151.35" y2="46.5305" gradientUnits="userSpaceOnUse">
<stop offset="0.520833" stop-color="#FC9842"/>
<stop offset="1" stop-color="#FFE1C7"/>
</linearGradient>
<linearGradient id="paint23_linear_1_137" x1="167.614" y1="20.267" x2="167.614" y2="30.267" gradientUnits="userSpaceOnUse">
<stop offset="0.520833" stop-color="#FC9842"/>
<stop offset="1" stop-color="#FFE1C7"/>
</linearGradient>
<linearGradient id="paint24_linear_1_137" x1="76.3675" y1="66.2289" x2="80.6102" y2="70.4716" gradientUnits="userSpaceOnUse">
<stop offset="0.520833" stop-color="#FC9842"/>
<stop offset="1" stop-color="#FFE1C7"/>
</linearGradient>
<linearGradient id="paint25_linear_1_137" x1="21.9203" y1="11.7817" x2="26.163" y2="16.0244" gradientUnits="userSpaceOnUse">
<stop offset="0.520833" stop-color="#FC9842"/>
<stop offset="1" stop-color="#FFE1C7"/>
</linearGradient>
<linearGradient id="paint26_linear_1_137" x1="131.522" y1="11.0746" x2="135.764" y2="15.3173" gradientUnits="userSpaceOnUse">
<stop offset="0.520833" stop-color="#FC9842"/>
<stop offset="1" stop-color="#FFE1C7"/>
</linearGradient>
</defs>
</svg>
