<svg width="92" height="80" viewBox="0 0 92 80" fill="none" xmlns="http://www.w3.org/2000/svg">
<rect x="0.707092" y="79.1959" width="33" height="10" rx="5" transform="rotate(-45 0.707092 79.1959)" fill="url(#paint0_linear_1_278)" fill-opacity="0.5"/>
<rect x="17.6777" y="96.1665" width="33" height="10" rx="5" transform="rotate(-45 17.6777 96.1665)" fill="url(#paint1_linear_1_278)" fill-opacity="0.5"/>
<rect x="24.7487" y="103.238" width="34" height="10" rx="5" transform="rotate(-135 24.7487 103.238)" fill="url(#paint2_linear_1_278)" fill-opacity="0.5"/>
<rect x="41.0122" y="86.9741" width="34" height="10" rx="5" transform="rotate(-135 41.0122 86.9741)" fill="url(#paint3_linear_1_278)" fill-opacity="0.5"/>
<rect x="58.6899" y="80.6102" width="22" height="9" rx="4.5" transform="rotate(-45 58.6899 80.6102)" fill="url(#paint4_linear_1_278)" fill-opacity="0.5"/>
<rect x="62.2254" y="16.2634" width="22" height="9" rx="4.5" transform="rotate(-45 62.2254 16.2634)" fill="url(#paint5_linear_1_278)" fill-opacity="0.5"/>
<rect x="86.267" y="78.4888" width="50" height="9" rx="4.5" transform="rotate(-45 86.267 78.4888)" fill="url(#paint6_linear_1_278)" fill-opacity="0.5"/>
<rect x="51.6188" y="76.3675" width="34" height="9" rx="4.5" transform="rotate(-135 51.6188 76.3675)" fill="url(#paint7_linear_1_278)" fill-opacity="0.5"/>
<rect x="72.1249" y="75.6604" width="34" height="9" rx="4.5" transform="rotate(-135 72.1249 75.6604)" fill="url(#paint8_linear_1_278)" fill-opacity="0.5"/>
<rect x="85.5599" y="65.0538" width="51" height="9" rx="4.5" transform="rotate(-135 85.5599 65.0538)" fill="url(#paint9_linear_1_278)" fill-opacity="0.5"/>
<rect x="103.238" y="37.4766" width="44" height="9" rx="4.5" transform="rotate(-135 103.238 37.4766)" fill="url(#paint10_linear_1_278)" fill-opacity="0.5"/>
<rect x="92.631" y="48.0833" width="27" height="9" rx="4.5" transform="rotate(-135 92.631 48.0833)" fill="url(#paint11_linear_1_278)" fill-opacity="0.5"/>
<rect x="97.5807" y="91.2167" width="17" height="9" rx="4.5" transform="rotate(-135 97.5807 91.2167)" fill="url(#paint12_linear_1_278)" fill-opacity="0.5"/>
<circle cx="44.5477" cy="41.7193" r="4.5" transform="rotate(-45 44.5477 41.7193)" fill="url(#paint13_linear_1_278)" fill-opacity="0.5"/>
<circle cx="44.5477" cy="41.7193" r="4.5" transform="rotate(-45 44.5477 41.7193)" fill="url(#paint14_linear_1_278)" fill-opacity="0.5"/>
<path d="M21.9203 77.7817L26.9394 79.1266L23.2652 82.8008L21.9203 77.7817Z" fill="url(#paint15_linear_1_278)" fill-opacity="0.5"/>
<defs>
<linearGradient id="paint0_linear_1_278" x1="17.2071" y1="79.1959" x2="17.2071" y2="89.1959" gradientUnits="userSpaceOnUse">
<stop stop-color="#FE5F5F"/>
<stop offset="1" stop-color="#FF9B50"/>
</linearGradient>
<linearGradient id="paint1_linear_1_278" x1="34.1777" y1="96.1665" x2="34.1777" y2="106.167" gradientUnits="userSpaceOnUse">
<stop stop-color="#FE5F5F"/>
<stop offset="1" stop-color="#FF9B50"/>
</linearGradient>
<linearGradient id="paint2_linear_1_278" x1="41.7487" y1="103.238" x2="41.7487" y2="113.238" gradientUnits="userSpaceOnUse">
<stop stop-color="#FE5F5F"/>
<stop offset="1" stop-color="#FF9B50"/>
</linearGradient>
<linearGradient id="paint3_linear_1_278" x1="58.0122" y1="86.9741" x2="58.0122" y2="96.9741" gradientUnits="userSpaceOnUse">
<stop stop-color="#FE5F5F"/>
<stop offset="1" stop-color="#FF9B50"/>
</linearGradient>
<linearGradient id="paint4_linear_1_278" x1="69.6899" y1="80.6102" x2="69.6899" y2="89.6102" gradientUnits="userSpaceOnUse">
<stop stop-color="#FE5F5F"/>
<stop offset="1" stop-color="#FF9B50"/>
</linearGradient>
<linearGradient id="paint5_linear_1_278" x1="73.2254" y1="16.2634" x2="73.2254" y2="25.2634" gradientUnits="userSpaceOnUse">
<stop stop-color="#FE5F5F"/>
<stop offset="1" stop-color="#FF9B50"/>
</linearGradient>
<linearGradient id="paint6_linear_1_278" x1="111.267" y1="78.4888" x2="111.267" y2="87.4888" gradientUnits="userSpaceOnUse">
<stop stop-color="#FE5F5F"/>
<stop offset="1" stop-color="#FF9B50"/>
</linearGradient>
<linearGradient id="paint7_linear_1_278" x1="68.6188" y1="76.3675" x2="68.6188" y2="85.3675" gradientUnits="userSpaceOnUse">
<stop stop-color="#FE5F5F"/>
<stop offset="1" stop-color="#FF9B50"/>
</linearGradient>
<linearGradient id="paint8_linear_1_278" x1="89.1249" y1="75.6604" x2="89.1249" y2="84.6604" gradientUnits="userSpaceOnUse">
<stop stop-color="#FE5F5F"/>
<stop offset="1" stop-color="#FF9B50"/>
</linearGradient>
<linearGradient id="paint9_linear_1_278" x1="111.06" y1="65.0538" x2="111.06" y2="74.0538" gradientUnits="userSpaceOnUse">
<stop stop-color="#FE5F5F"/>
<stop offset="1" stop-color="#FF9B50"/>
</linearGradient>
<linearGradient id="paint10_linear_1_278" x1="125.238" y1="37.4766" x2="125.238" y2="46.4766" gradientUnits="userSpaceOnUse">
<stop stop-color="#FE5F5F"/>
<stop offset="1" stop-color="#FF9B50"/>
</linearGradient>
<linearGradient id="paint11_linear_1_278" x1="106.131" y1="48.0833" x2="106.131" y2="57.0833" gradientUnits="userSpaceOnUse">
<stop stop-color="#FE5F5F"/>
<stop offset="1" stop-color="#FF9B50"/>
</linearGradient>
<linearGradient id="paint12_linear_1_278" x1="106.081" y1="91.2167" x2="106.081" y2="100.217" gradientUnits="userSpaceOnUse">
<stop stop-color="#FE5F5F"/>
<stop offset="1" stop-color="#FF9B50"/>
</linearGradient>
<linearGradient id="paint13_linear_1_278" x1="44.5477" y1="37.2193" x2="44.5477" y2="46.2193" gradientUnits="userSpaceOnUse">
<stop stop-color="#FE5F5F"/>
<stop offset="1" stop-color="#FF9B50"/>
</linearGradient>
<linearGradient id="paint14_linear_1_278" x1="44.5477" y1="37.2193" x2="44.5477" y2="46.2193" gradientUnits="userSpaceOnUse">
<stop stop-color="#FE5F5F"/>
<stop offset="1" stop-color="#FF9B50"/>
</linearGradient>
<linearGradient id="paint15_linear_1_278" x1="21.9203" y1="77.7817" x2="26.163" y2="82.0243" gradientUnits="userSpaceOnUse">
<stop stop-color="#FE5F5F"/>
<stop offset="1" stop-color="#FF9B50"/>
</linearGradient>
</defs>
</svg>
