<svg width="20" height="18" viewBox="0 0 20 18" fill="none" xmlns="http://www.w3.org/2000/svg">
<path d="M8 16.0842V11.0842H12V16.0842C12 16.6342 12.45 17.0842 13 17.0842H16C16.55 17.0842 17 16.6342 17 16.0842V9.0842H18.7C19.16 9.0842 19.38 8.5142 19.03 8.2142L10.67 0.684199C10.29 0.344199 9.71 0.344199 9.33 0.684199L0.970001 8.2142C0.630001 8.5142 0.840001 9.0842 1.3 9.0842H3V16.0842C3 16.6342 3.45 17.0842 4 17.0842H7C7.55 17.0842 8 16.6342 8 16.0842Z" fill="url(#paint0_linear_1_470)"/>
<defs>
<linearGradient id="paint0_linear_1_470" x1="10.0022" y1="0.429199" x2="10.0022" y2="17.0842" gradientUnits="userSpaceOnUse">
<stop stop-color="#FF4747"/>
<stop offset="1" stop-color="#FC9842"/>
</linearGradient>
</defs>
</svg>
