<svg width="20" height="21" viewBox="0 0 20 21" fill="none" xmlns="http://www.w3.org/2000/svg">
<path d="M10 0.0842285C4.48 0.0842285 0 4.56423 0 10.0842C0 15.6042 4.48 20.0842 10 20.0842C15.52 20.0842 20 15.6042 20 10.0842C20 4.56423 15.52 0.0842285 10 0.0842285ZM10 3.08423C11.66 3.08423 13 4.42423 13 6.08423C13 7.74423 11.66 9.08423 10 9.08423C8.34 9.08423 7 7.74423 7 6.08423C7 4.42423 8.34 3.08423 10 3.08423ZM10 17.2842C8.81186 17.2842 7.64218 16.9902 6.59528 16.4284C5.54837 15.8665 4.65678 15.0543 4 14.0642C4.03 12.0742 8 10.9842 10 10.9842C11.99 10.9842 15.97 12.0742 16 14.0642C15.3432 15.0543 14.4516 15.8665 13.4047 16.4284C12.3578 16.9902 11.1881 17.2842 10 17.2842Z" fill="url(#paint0_linear_1_471)"/>
<defs>
<linearGradient id="paint0_linear_1_471" x1="10" y1="0.0842285" x2="10" y2="20.0842" gradientUnits="userSpaceOnUse">
<stop stop-color="#FE5F5F"/>
<stop offset="1" stop-color="#FC9842"/>
</linearGradient>
</defs>
</svg>
